<svg xmlns="http://www.w3.org/2000/svg" viewBox="0 0 42.76 33.27"><defs><style>.cls-1{fill:#fff;}</style></defs><g id="Layer_2" data-name="Layer 2"><g id="Homepage_-_1" data-name="Homepage - 1"><path class="cls-1" d="M24.16,10.43a6.58,6.58,0,0,0,1.55,2.51,7.51,7.51,0,0,0,3,1.85,14.63,14.63,0,0,0,4.81.66h2.66a23.51,23.51,0,0,1-3.38,9.39,50,50,0,0,1-6.48,8.43,31.2,31.2,0,0,0,11.62-8.76c3.23-3.86,4.83-7.69,4.83-11.48q0-6.1-2.8-9.57a9.79,9.79,0,0,0-8-3.46,8.24,8.24,0,0,0-5.77,2.28,7,7,0,0,0-2.44,5.31A9.07,9.07,0,0,0,24.16,10.43Z"/><path class="cls-1" d="M.44,10.43A6.7,6.7,0,0,0,2,12.94a7.62,7.62,0,0,0,3,1.85,14.63,14.63,0,0,0,4.81.66h2.66a23.53,23.53,0,0,1-3.39,9.39A50.29,50.29,0,0,1,2.6,33.27a31.28,31.28,0,0,0,11.62-8.76Q19.05,18.72,19.05,13q0-6.1-2.81-9.57A9.75,9.75,0,0,0,8.21,0,8.24,8.24,0,0,0,2.44,2.28,7,7,0,0,0,0,7.59,9.36,9.36,0,0,0,.44,10.43Z"/></g></g></svg>