<svg xmlns="http://www.w3.org/2000/svg" viewBox="0 0 71.22 55.41"><defs><style>.cls-1{fill:#fff;}</style></defs><g id="Layer_2" data-name="Layer 2"><g id="Homepage_-_1" data-name="Homepage - 1"><path class="cls-1" d="M31,38a11,11,0,0,0-2.58-4.17,12.53,12.53,0,0,0-5-3.08,24.26,24.26,0,0,0-8-1.1H11c.51-5.48,3-11.27,5.63-15.65A84.2,84.2,0,0,1,27.39,0,52,52,0,0,0,8,14.59Q0,24.22,0,33.7,0,43.87,4.67,49.64t13.38,5.77a13.74,13.74,0,0,0,9.61-3.79,11.73,11.73,0,0,0,4.06-8.85A15.2,15.2,0,0,0,31,38Z"/><path class="cls-1" d="M70.48,38a11.13,11.13,0,0,0-2.58-4.17,12.5,12.5,0,0,0-5-3.08,24.19,24.19,0,0,0-8-1.1H50.47c.52-5.48,3-11.27,5.64-15.65A84.2,84.2,0,0,1,66.89,0,52.05,52.05,0,0,0,47.53,14.59q-8,9.63-8,19.11c0,6.78,1.54,12.1,4.67,15.94s7.56,5.77,13.38,5.77a13.74,13.74,0,0,0,9.61-3.79,11.77,11.77,0,0,0,4.06-8.85A15.5,15.5,0,0,0,70.48,38Z"/></g></g></svg>