<svg xmlns="http://www.w3.org/2000/svg" viewBox="0 0 167.1 93.98"><defs><style>.cls-1,.cls-2{fill:#fff;}.cls-1{opacity:0.5;}</style></defs><g id="Layer_2" data-name="Layer 2"><g id="Homepage_-_2" data-name="Homepage - 2"><path class="cls-1" d="M122.56.06A47,47,0,1,0,167,44.54,47,47,0,0,0,122.56.06ZM107.22,41.5a11.14,11.14,0,1,1,9-9.13A11.16,11.16,0,0,1,107.22,41.5Z"/><g id="Pictures"><path id="P" class="cls-2" d="M36.1,65v4H34.62V59.11H36.3a7.21,7.21,0,0,1,1.85.17,2.49,2.49,0,0,1,1.14.64,2.82,2.82,0,0,1,.85,2.1,2.7,2.7,0,0,1-.93,2.14,3.55,3.55,0,0,1-2.43.78Zm0-1.36h.56c1.35,0,2-.52,2-1.56s-.68-1.52-2.1-1.52h-.5Z"/><path id="I" class="cls-2" d="M45.09,59.11v9.81H43.61V59.11Z"/><path id="C" class="cls-2" d="M56.66,59.63v1.76A4.09,4.09,0,0,0,54,60.3a3.41,3.41,0,0,0-2.55,1.1,3.66,3.66,0,0,0-1,2.66,3.53,3.53,0,0,0,1,2.6A3.41,3.41,0,0,0,54,67.72a3.15,3.15,0,0,0,1.35-.25,3.83,3.83,0,0,0,.63-.34,5.89,5.89,0,0,0,.68-.53v1.8a5.21,5.21,0,0,1-2.67.71,5,5,0,0,1-5.09-5h0v-.06a5.07,5.07,0,0,1,1.22-3.35,5.12,5.12,0,0,1,6.51-1.08Z"/><path id="T" class="cls-2" d="M63.19,60.5v8.42H61.71V60.5H59.45V59.12h6V60.5Z"/><path id="U" class="cls-2" d="M76,59.11v6.31A3.57,3.57,0,0,1,75,68a3.75,3.75,0,0,1-5.29,0l0,0a3.49,3.49,0,0,1-1-2.56V59.11H70.2V65a3.22,3.22,0,0,0,.41,1.85,2.2,2.2,0,0,0,3.09.38h0a2.28,2.28,0,0,0,.38-.38A3.14,3.14,0,0,0,74.5,65V59.11Z"/><path id="R" class="cls-2" d="M83.61,64.74a2.84,2.84,0,0,0,1.21-4.9A4.32,4.32,0,0,0,82,59.11H80.27v9.82h1.48v-4H82l2.83,4h1.82Zm-1.85-1.13V60.5h.54c1.35,0,2,.43,2,1.5s-.72,1.61-2.1,1.61Z"/><polygon id="E" class="cls-2" points="91.56 60.51 91.56 62.86 95.39 62.86 95.39 64.25 91.56 64.25 91.56 67.53 95.5 67.53 95.5 68.89 90.08 68.89 90.08 59.11 95.5 59.11 95.5 60.51 91.56 60.51"/><path id="S" class="cls-2" d="M105.19,65.94a3,3,0,0,1-.9,2.24,3.12,3.12,0,0,1-2.26.89,3,3,0,0,1-2.12-.76,3.57,3.57,0,0,1-1-2.13l1.51-.33a2.39,2.39,0,0,0,.35,1.19,1.69,1.69,0,0,0,2.37.28l.12-.11a1.6,1.6,0,0,0,.46-1.12,1.88,1.88,0,0,0-.08-.52,1.29,1.29,0,0,0-.25-.44,1.91,1.91,0,0,0-.43-.37,4.31,4.31,0,0,0-.64-.33l-1-.4c-1.36-.57-2-1.4-2-2.49a2.38,2.38,0,0,1,.84-1.85,3.08,3.08,0,0,1,2.11-.76,3,3,0,0,1,2.66,1.64l-1.2.68a2.09,2.09,0,0,0-.64-.77,1.39,1.39,0,0,0-.82-.2,1.55,1.55,0,0,0-1,.35,1.08,1.08,0,0,0-.4.87c0,.46.36.86,1.07,1.15l1,.4a4.21,4.21,0,0,1,1.75,1.19A2.65,2.65,0,0,1,105.19,65.94Z"/></g><g id="Blueberry"><path id="B" class="cls-2" d="M18.49,44.1c0,3.58-3.94,5.73-10.45,5.73H2.18A2,2,0,0,1,0,48c0-.58.42-1.59.42-2.18V33c0-.59-.42-1.6-.42-2.21A2,2,0,0,1,2.18,29H8c6.1,0,10.17,1.92,10.17,5.37,0,2-1.46,3.61-4.07,4.49-.29.1-.29.23,0,.33C17,40.13,18.49,41.85,18.49,44.1ZM7.26,37.63a.59.59,0,0,0,.52.61A9.18,9.18,0,0,0,9,38.31c1.5,0,1.82-1.53,1.73-3.81-.1-2.64-.93-3.81-2.64-3.81H7.78a.6.6,0,0,0-.52.62Zm0,9.89a.6.6,0,0,0,.52.62,4.68,4.68,0,0,0,.84.07c1.76,0,2.48-1.3,2.38-4.23-.06-2.15-.71-4.23-3.23-4.23a.63.63,0,0,0-.52.67Z"/><path id="l" class="cls-2" d="M19.67,48c0-.58.42-1.59.42-2.18V33.09c0-.68-.46-1.52-.46-2.31a2,2,0,0,1,1.93-2l3.53-.6c.93-.16,1.57.19,1.57,1V45.8c0,.58.42,1.6.42,2.18a2,2,0,0,1-2.2,1.85h-3A2,2,0,0,1,19.67,48Z"/><path id="u-2" data-name="u" class="cls-2" d="M32.39,50.09c-2.63,0-3.8-1.43-3.8-3.7V38.21c0-.68-.47-1.53-.47-2.31a2,2,0,0,1,1.93-2l3.48-.59c.92-.16,1.57.2,1.57,1v8.88c0,1.92.39,2.71,1.26,2.71a1.59,1.59,0,0,0,1.55-1.53V38.23c0-.67-.47-1.53-.47-2.31a2,2,0,0,1,1.92-2l3.48-.59c.93-.16,1.57.2,1.57,1V45.79c0,.59.42,1.6.42,2.18a2,2,0,0,1-2.18,1.85h-3A2,2,0,0,1,37.48,48s0,0,0,0v-.2c.07-.4-.06-.47-.33-.2C35.84,48.83,34,50.09,32.39,50.09Z"/><path id="e-2" data-name="e" class="cls-2" d="M55.8,43.29a7.66,7.66,0,0,0,4.47-1.62c.25-.19.42-.07.42.33a7.91,7.91,0,0,1-7.76,8.14c-4.26,0-7.22-3.63-7.22-8.42,0-4.16,2.44-8.52,7.26-8.52a5.67,5.67,0,0,1,5.42,3.06c.89,2,.07,3.77-2.34,3.77H51.47c-.22,0-.35.13-.26.36A4.76,4.76,0,0,0,55.8,43.29Zm-2.53-4.68a.47.47,0,0,0,.39-.46c0-1-.2-3.81-1.7-3.81-1,0-1.49,2.12-1.24,4.16a.37.37,0,0,0,.42.33h0Z"/><path id="b-2" data-name="b" class="cls-2" d="M74.51,34a8,8,0,0,0-3.44-.73,5.4,5.4,0,0,0-2.38.45c-.23.09-.36,0-.36-.2V29.16c0-.81-.63-1.17-1.56-1l-3.48.59a2,2,0,0,0-1.92,2c0,.78.46,1.63.46,2.31v14c0,1.75.68,2.67,2,2.67a4,4,0,0,0,2.39-.73.48.48,0,0,1,.58,0,5.78,5.78,0,0,0,3.75,1.08,9,9,0,0,0,2.12-.23l.27-.06c3.69-.89,6-4,6-8.18C78.88,38,77.21,35.21,74.51,34ZM70.74,49c-1.24.17-2.41-2-2.41-5.89V37.32c.08-1.67.26-2.51,1-2.6,1.39-.22,2,1.9,2.48,6.78S72,48.88,70.74,49Z"/><path id="e-3" data-name="e" class="cls-2" d="M94.09,41.68a7.62,7.62,0,0,1-4.46,1.61,4.74,4.74,0,0,1-4.57-2.92c-.1-.22,0-.35.26-.35h4.56c2.41,0,3.22-1.74,2.34-3.78a5.69,5.69,0,0,0-5.42-3.06c-4.85,0-7.27,4.37-7.27,8.53,0,4.78,3,8.43,7.23,8.43A7.9,7.9,0,0,0,94.51,42C94.51,41.61,94.35,41.48,94.09,41.68ZM85,38.84a.38.38,0,0,1-.41-.33c-.26-2,.2-4.16,1.24-4.16,1.49,0,1.69,2.76,1.69,3.8a.45.45,0,0,1-.39.46L85,38.84Z"/><path id="r-2" data-name="r" class="cls-2" d="M102.16,45.8c0,.58.43,1.6.43,2.18a2,2,0,0,1-2.21,1.85h-3A2,2,0,0,1,95.2,48c0-.58.43-1.6.43-2.19V38.21c0-.67-.46-1.53-.46-2.31a1.5,1.5,0,0,1,0-.37.77.77,0,0,1,.07-.26,2,2,0,0,1,1.81-1.4l2.67-.47c1.59-.26,2.38.47,2.38,2.34V39c0,.3.26.33.26,0,.09-3.93,1.29-5.74,3.71-5.74,1.72,0,2.41,1.35,2.5,2.89.23,4-3.65,4.07-6.45,4.49Z"/><path id="r-3" data-name="r" class="cls-2" d="M116.08,40.62V45.8c0,.58.42,1.6.42,2.18a2,2,0,0,1-2.15,1.85h-3A2.05,2.05,0,0,1,109.17,48c0-.58.42-1.6.42-2.18V38.21c0-.67-.46-1.53-.46-2.31a2,2,0,0,1,1.92-2l2.67-.47a1.81,1.81,0,0,1,2,.59,1.23,1.23,0,0,1,.14.25,3.47,3.47,0,0,1,.27,1.5V39c0,.3.25.33.25,0,.11-3.93,1.31-5.74,3.69-5.74,1.72,0,2.41,1.35,2.52,2.89C122.78,40.1,118.9,40.2,116.08,40.62Z"/><path id="y" class="cls-2" d="M139.83,37.69c0,6.11-7.16,17.68-13.18,17.68-1.77,0-3.24-.59-3.45-2.47a2.3,2.3,0,0,1,2.57-2.72c1.53,0,2.64.55,3.77.55a3,3,0,0,0,1.69-.52c.33-.19.27-.39-.12-.42a6.49,6.49,0,0,1-5.76-5.11l-1.6-6.58a30.94,30.94,0,0,1-1-3c-.13-1,.29-1.59,1.36-1.59h4.49c.92,0,1.35.19,1.55,1l3.2,12.67c.09.38.29.42.46.06,1.67-3.58-.28-8-.28-10.4a3.32,3.32,0,0,1,3.34-3.64C138.83,33.24,139.83,34.31,139.83,37.69Z"/></g></g></g></svg>